P1
87 50
000000000010101000110001101001100101110110101011100101000100110110010011101010000000000
000000000010101000110001101001100101110110101011100101000100110110010011101010000000000
000000000010101000110001101001100101110110101011100101000100110110010011101010000000000
000000000010101000110001101001100101110110101011100101000100110110010011101010000000000
000000000010101000110001101001100101110110101011100101000100110110010011101010000000000
000000000010101000110001101001100101110110101011100101000100110110010011101010000000000
000000000010101000110001101001100101110110101011100101000100110110010011101010000000000
000000000010101000110001101001100101110110101011100101000100110110010011101010000000000
000000000010101000110001101001100101110110101011100101000100110110010011101010000000000
000000000010101000110001101001100101110110101011100101000100110110010011101010000000000
000000000010101000110001101001100101110110101011100101000100110110010011101010000000000
000000000010101000110001101001100101110110101011100101000100110110010011101010000000000
000000000010101000110001101001100101110110101011100101000100110110010011101010000000000
000000000010101000110001101001100101110110101011100101000100110110010011101010000000000
000000000010101000110001101001100101110110101011100101000100110110010011101010000000000
000000000010101000110001101001100101110110101011100101000100110110010011101010000000000
000000000010101000110001101001100101110110101011100101000100110110010011101010000000000
000000000010101000110001101001100101110110101011100101000100110110010011101010000000000
000000000010101000110001101001100101110110101011100101000100110110010011101010000000000
000000000010101000110001101001100101110110101011100101000100110110010011101010000000000
000000000010101000110001101001100101110110101011100101000100110110010011101010000000000
000000000010101000110001101001100101110110101011100101000100110110010011101010000000000
000000000010101000110001101001100101110110101011100101000100110110010011101010000000000
000000000010101000110001101001100101110110101011100101000100110110010011101010000000000
000000000010101000110001101001100101110110101011100101000100110110010011101010000000000
000000000010101000110001101001100101110110101011100101000100110110010011101010000000000
000000000010101000110001101001100101110110101011100101000100110110010011101010000000000
000000000010101000110001101001100101110110101011100101000100110110010011101010000000000
000000000010101000110001101001100101110110101011100101000100110110010011101010000000000
000000000010101000110001101001100101110110101011100101000100110110010011101010000000000
000000000010101000110001101001100101110110101011100101000100110110010011101010000000000
000000000010101000110001101001100101110110101011100101000100110110010011101010000000000
000000000010101000110001101001100101110110101011100101000100110110010011101010000000000
000000000010101000110001101001100101110110101011100101000100110110010011101010000000000
000000000010101000110001101001100101110110101011100101000100110110010011101010000000000
000000000010101000110001101001100101110110101011100101000100110110010011101010000000000
000000000010101000110001101001100101110110101011100101000100110110010011101010000000000
000000000010101000110001101001100101110110101011100101000100110110010011101010000000000
000000000010101000110001101001100101110110101011100101000100110110010011101010000000000
000000000010101000110001101001100101110110101011100101000100110110010011101010000000000
000000000010101000110001101001100101110110101011100101000100110110010011101010000000000
000000000010101000110001101001100101110110101011100101000100110110010011101010000000000
000000000010101000110001101001100101110110101011100101000100110110010011101010000000000
000000000010101000110001101001100101110110101011100101000100110110010011101010000000000
000000000010101000110001101001100101110110101011100101000100110110010011101010000000000
000000000010101000110001101001100101110110101011100101000100110110010011101010000000000
000000000010101000110001101001100101110110101011100101000100110110010011101010000000000
000000000010101000110001101001100101110110101011100101000100110110010011101010000000000
000000000010101000110001101001100101110110101011100101000100110110010011101010000000000
000000000010101000110001101001100101110110101011100101000100110110010011101010000000000
