P1
174 40
000000000000000000001100110000111100001100001100001111001111111100110011000000111100110011001100001111110011001100000000110000001100001111110000110011001100000000000000000000
000000000000000000001100110000111100001100001100001111001111111100110011000000111100110011001100001111110011001100000000110000001100001111110000110011001100000000000000000000
000000000000000000001100110000111100001100001100001111001111111100110011000000111100110011001100001111110011001100000000110000001100001111110000110011001100000000000000000000
000000000000000000001100110000111100001100001100001111001111111100110011000000111100110011001100001111110011001100000000110000001100001111110000110011001100000000000000000000
000000000000000000001100110000111100001100001100001111001111111100110011000000111100110011001100001111110011001100000000110000001100001111110000110011001100000000000000000000
000000000000000000001100110000111100001100001100001111001111111100110011000000111100110011001100001111110011001100000000110000001100001111110000110011001100000000000000000000
000000000000000000001100110000111100001100001100001111001111111100110011000000111100110011001100001111110011001100000000110000001100001111110000110011001100000000000000000000
000000000000000000001100110000111100001100001100001111001111111100110011000000111100110011001100001111110011001100000000110000001100001111110000110011001100000000000000000000
000000000000000000001100110000111100001100001100001111001111111100110011000000111100110011001100001111110011001100000000110000001100001111110000110011001100000000000000000000
000000000000000000001100110000111100001100001100001111001111111100110011000000111100110011001100001111110011001100000000110000001100001111110000110011001100000000000000000000
000000000000000000001100110000111100001100001100001111001111111100110011000000111100110011001100001111110011001100000000110000001100001111110000110011001100000000000000000000
000000000000000000001100110000111100001100001100001111001111111100110011000000111100110011001100001111110011001100000000110000001100001111110000110011001100000000000000000000
000000000000000000001100110000111100001100001100001111001111111100110011000000111100110011001100001111110011001100000000110000001100001111110000110011001100000000000000000000
000000000000000000001100110000111100001100001100001111001111111100110011000000111100110011001100001111110011001100000000110000001100001111110000110011001100000000000000000000
000000000000000000001100110000111100001100001100001111001111111100110011000000111100110011001100001111110011001100000000110000001100001111110000110011001100000000000000000000
000000000000000000001100110000111100001100001100001111001111111100110011000000111100110011001100001111110011001100000000110000001100001111110000110011001100000000000000000000
000000000000000000001100110000111100001100001100001111001111111100110011000000111100110011001100001111110011001100000000110000001100001111110000110011001100000000000000000000
000000000000000000001100110000111100001100001100001111001111111100110011000000111100110011001100001111110011001100000000110000001100001111110000110011001100000000000000000000
000000000000000000001100110000111100001100001100001111001111111100110011000000111100110011001100001111110011001100000000110000001100001111110000110011001100000000000000000000
000000000000000000001100110000111100001100001100001111001111111100110011000000111100110011001100001111110011001100000000110000001100001111110000110011001100000000000000000000
000000000000000000001100110000111100001100001100001111001111111100110011000000111100110011001100001111110011001100000000110000001100001111110000110011001100000000000000000000
000000000000000000001100110000111100001100001100001111001111111100110011000000111100110011001100001111110011001100000000110000001100001111110000110011001100000000000000000000
000000000000000000001100110000111100001100001100001111001111111100110011000000111100110011001100001111110011001100000000110000001100001111110000110011001100000000000000000000
000000000000000000001100110000111100001100001100001111001111111100110011000000111100110011001100001111110011001100000000110000001100001111110000110011001100000000000000000000
000000000000000000001100110000111100001100001100001111001111111100110011000000111100110011001100001111110011001100000000110000001100001111110000110011001100000000000000000000
000000000000000000001100110000111100001100001100001111001111111100110011000000111100110011001100001111110011001100000000110000001100001111110000110011001100000000000000000000
000000000000000000001100110000111100001100001100001111001111111100110011000000111100110011001100001111110011001100000000110000001100001111110000110011001100000000000000000000
000000000000000000001100110000111100001100001100001111001111111100110011000000111100110011001100001111110011001100000000110000001100001111110000110011001100000000000000000000
000000000000000000001100110000111100001100001100001111001111111100110011000000111100110011001100001111110011001100000000110000001100001111110000110011001100000000000000000000
000000000000000000001100110000111100001100001100001111001111111100110011000000111100110011001100001111110011001100000000110000001100001111110000110011001100000000000000000000
000000000000000000001100110000111100001100001100001111001111111100110011000000111100110011001100001111110011001100000000110000001100001111110000110011001100000000000000000000
000000000000000000001100110000111100001100001100001111001111111100110011000000111100110011001100001111110011001100000000110000001100001111110000110011001100000000000000000000
000000000000000000001100110000111100001100001100001111001111111100110011000000111100110011001100001111110011001100000000110000001100001111110000110011001100000000000000000000
000000000000000000001100110000111100001100001100001111001111111100110011000000111100110011001100001111110011001100000000110000001100001111110000110011001100000000000000000000
000000000000000000001100110000111100001100001100001111001111111100110011000000111100110011001100001111110011001100000000110000001100001111110000110011001100000000000000000000
000000000000000000001100110000111100001100001100001111001111111100110011000000111100110011001100001111110011001100000000110000001100001111110000110011001100000000000000000000
000000000000000000001100110000111100001100001100001111001111111100110011000000111100110011001100001111110011001100000000110000001100001111110000110011001100000000000000000000
000000000000000000001100110000111100001100001100001111001111111100110011000000111100110011001100001111110011001100000000110000001100001111110000110011001100000000000000000000
000000000000000000001100110000111100001100001100001111001111111100110011000000111100110011001100001111110011001100000000110000001100001111110000110011001100000000000000000000
000000000000000000001100110000111100001100001100001111001111111100110011000000111100110011001100001111110011001100000000110000001100001111110000110011001100000000000000000000
